<?xml version="1.0" encoding="UTF-8" standalone="no"?>
<!-- Created with Inkscape (http://www.inkscape.org/) -->

<svg
   width="2000"
   height="400"
   id="svg5241"
   version="1.1"
   inkscape:version="1.1 (c68e22c387, 2021-05-23)"
   sodipodi:docname="logo.svg"
   inkscape:export-filename="/Users/anthony/dev/readthedocs/guidelines/assets/logo-wordmark-light.png"
   inkscape:export-xdpi="90"
   inkscape:export-ydpi="90"
   xmlns:inkscape="http://www.inkscape.org/namespaces/inkscape"
   xmlns:sodipodi="http://sodipodi.sourceforge.net/DTD/sodipodi-0.dtd"
   xmlns:xlink="http://www.w3.org/1999/xlink"
   xmlns="http://www.w3.org/2000/svg"
   xmlns:svg="http://www.w3.org/2000/svg"
   xmlns:rdf="http://www.w3.org/1999/02/22-rdf-syntax-ns#"
   xmlns:cc="http://creativecommons.org/ns#"
   xmlns:dc="http://purl.org/dc/elements/1.1/">
  <defs
     id="defs5243">
    <linearGradient
       id="linearGradient2610"
       y2="790.53998"
       xlink:href="#linearGradient4690"
       gradientUnits="userSpaceOnUse"
       x2="366.32001"
       y1="833.10999"
       x1="328.54999"
       inkscape:collect="always" />
    <linearGradient
       id="linearGradient4690">
      <stop
         id="stop4692"
         style="stop-color:#717171"
         offset="0" />
      <stop
         id="stop4694"
         style="stop-color:#020202"
         offset="1" />
    </linearGradient>
    <linearGradient
       id="linearGradient2612"
       y2="779.98999"
       xlink:href="#linearGradient4690"
       gradientUnits="userSpaceOnUse"
       x2="444.29999"
       y1="820.15997"
       x1="413.88"
       inkscape:collect="always" />
    <radialGradient
       id="radialGradient2614"
       gradientUnits="userSpaceOnUse"
       cy="618.83002"
       cx="343.45999"
       gradientTransform="matrix(1.699183,0.35630407,-0.23692044,1.1299122,-337.62733,-767.29699)"
       r="73.725998"
       inkscape:collect="always">
      <stop
         id="stop2453"
         style="stop-color:#000000"
         offset="0" />
      <stop
         id="stop2455"
         style="stop-color:#87810d"
         offset=".026044" />
      <stop
         id="stop2457"
         style="stop-color:#d4de37"
         offset=".0923" />
      <stop
         id="stop2459"
         style="stop-color:#f4f5df"
         offset=".20962" />
      <stop
         id="stop2487"
         style="stop-color:#83e6d7"
         offset=".89784" />
      <stop
         id="stop2461"
         style="stop-color:#f5f5f5;stop-opacity:1"
         offset="1" />
    </radialGradient>
    <linearGradient
       id="linearGradient2616"
       y2="539.62"
       gradientUnits="userSpaceOnUse"
       y1="539.62"
       gradientTransform="translate(17.266,1.3098)"
       x2="365.20001"
       x1="334.95001"
       inkscape:collect="always">
      <stop
         id="stop4684"
         style="stop-color:#ef0500"
         offset="0" />
      <stop
         id="stop4686"
         style="stop-color:#bcb619"
         offset="1" />
    </linearGradient>
  </defs>
  <sodipodi:namedview
     id="base"
     pagecolor="#32322a"
     bordercolor="#666666"
     borderopacity="1.0"
     inkscape:pageopacity="1"
     inkscape:pageshadow="2"
     inkscape:zoom="0.35152299"
     inkscape:cx="1035.4942"
     inkscape:cy="85.342926"
     inkscape:document-units="px"
     inkscape:current-layer="g3878"
     showgrid="false"
     inkscape:window-width="1366"
     inkscape:window-height="701"
     inkscape:window-x="0"
     inkscape:window-y="0"
     inkscape:window-maximized="0"
     inkscape:pagecheckerboard="0" />
  <metadata
     id="metadata5246">
    <rdf:RDF>
      <cc:Work
         rdf:about="">
        <dc:format>image/svg+xml</dc:format>
        <dc:type
           rdf:resource="http://purl.org/dc/dcmitype/StillImage" />
      </cc:Work>
    </rdf:RDF>
  </metadata>
  <g
     inkscape:label="Layer 1"
     inkscape:groupmode="layer"
     id="layer1"
     transform="translate(0,-652.3622)">
    <g
       id="g5310"
       transform="translate(-7.2877533,-6.3546821e-5)"
       style="fill:#fafafa;fill-opacity:1">
      <g
         inkscape:export-ydpi="90"
         inkscape:export-xdpi="90"
         inkscape:export-filename="/home/anthony/secure/docs/rtd/assets/rtd-logo-2.png"
         transform="matrix(0.55753644,0,0,0.55753644,62.308135,1038.8762)"
         id="g3990"
         style="fill:#fafafa;fill-opacity:1" />
      <g
         id="g3878"
         transform="matrix(8.4462802,0,0,8.4462802,-93.469267,-7827.1593)"
         style="fill:#fafafa;fill-opacity:1">
        <g
           id="g44474"
           transform="translate(-0.11710485,0.00179822)">
          <g
             id="g23485"
             transform="matrix(0.44747836,0,0,0.44747836,82.116028,973.52692)"
             style="font-style:normal;font-variant:normal;font-weight:normal;font-stretch:normal;font-size:32px;line-height:125%;font-family:Bitter;-inkscape-font-specification:Bitter;letter-spacing:-1.99px;word-spacing:0px;display:inline;fill:#fafafa;fill-opacity:1;stroke:none">
            <text
               id="text1960"
               y="133.85231"
               x="-52.686401"
               style="font-style:normal;font-weight:normal;font-size:52.9167px;line-height:1.25;font-family:sans-serif;letter-spacing:-2.64583px;display:inline;fill:#fafafa;fill-opacity:1;stroke:none;stroke-width:0.253818"
               xml:space="preserve"><tspan
                 id="tspan1974"
                 style="font-style:normal;font-variant:normal;font-weight:bold;font-stretch:normal;font-size:52.9167px;font-family:'Fira Sans';-inkscape-font-specification:'Fira Sans Bold';fill:#fafafa;fill-opacity:1;stroke-width:0.253818"
                 y="133.85231"
                 x="-52.686401"
                 sodipodi:role="line"><tspan
   dy="2.5999999"
   id="tspan9226"
   style="font-style:normal;font-variant:normal;font-weight:bold;font-stretch:normal;font-size:52.9167px;font-family:'Fira Sans';-inkscape-font-specification:'Fira Sans Bold';fill:#fafafa;fill-opacity:1;stroke-width:0.253818">Linux for </tspan>Biologists</tspan></text>
          </g>
          <g
             id="g44446">
            <rect
               style="font-style:normal;font-variant:normal;font-weight:normal;font-stretch:normal;font-size:32px;line-height:125%;font-family:Bitter;-inkscape-font-specification:Bitter;letter-spacing:-1.99px;word-spacing:0px;display:inline;fill:#f8ca00;fill-opacity:1;stroke:none;stroke-width:2.06351"
               id="rect42134"
               width="81.132233"
               height="84.586838"
               x="-145.71306"
               y="78.574921"
               transform="matrix(0.44747836,0,0,0.44747836,82.116028,973.52692)" />
            <g
               id="g4858"
               transform="matrix(0.16120858,0,0,0.16120858,16.11283,1007.2218)"
               style="display:inline">
              <path
                 style="display:inline;fill:#00b4ff;fill-opacity:1;stroke-width:0.540883"
                 d="m 161.65637,203.31113 q -54.4513,50.85345 -91.137718,4.0122 -36.686359,-46.84125 -42.363057,-92.55426 -5.676681,-45.712953 46.282828,-52.907703 51.959527,-7.194781 96.814417,41.700763 44.85486,48.89558 -9.59647,99.749 z"
                 id="blob"
                 inkscape:connector-curvature="0" />
              <g
                 transform="matrix(0.93539913,0,0,0.93539913,19.346417,0.48964643)"
                 id="g2579">
                <g
                   transform="matrix(0.54964838,0,0,0.54964838,-86.822762,-250.3197)"
                   id="g4717">
                  <path
                     d="m 313.98,839.33 c 0,0 0.02,-1.12 0.52,-2.23 0.49,-1.11 1.47,-2.22 1.47,-2.22 0,0 -1.67,-0.35 -7.8,0.78 -6.12,1.13 -14.15,2.33 -14.15,2.33 0,0 0.35,-1.94 2.85,-3.36 2.49,-1.43 7.13,-2.35 7.13,-2.35 l -8.05,0.11 c 0,0 3.46,-4.44 13.96,-7.94 10.5,-3.5 28.04,-6.06 28.04,-6.06 0,0 18.28,0.23 26.7,0.81 8.42,0.58 0.02,11.22 -0.67,12.27"
                     style="fill:#71584b;fill-rule:evenodd"
                     sodipodi:nodetypes="cscscsccsccs"
                     inkscape:connector-curvature="0"
                     id="path4705" />
                  <path
                     d="m 355.47,782.7 25.42,5.44 -5.45,20.89 c 0,0 -7.89,18.47 -11.35,20.43 -4.15,2.35 -43.12,6.81 -43.12,6.81 0,0 0.53,-2.89 2.38,-4.9 1.84,-2.02 4.99,-3.16 4.99,-3.16 l -17.62,2.04 c 0,0 1.8,-2.24 4.48,-3.57 2.67,-1.32 6.21,-1.73 6.21,-1.73 l -11,1.22 c 0,0 12.99,-5.99 21.9,-7.94 1.7,-0.37 7.62,0.55 13.03,-2.55 4.23,-2.41 10.13,-32.98 10.13,-32.98 z"
                     style="fill:url(#linearGradient2610);fill-rule:evenodd"
                     sodipodi:nodetypes="cccscsccsccszc"
                     inkscape:connector-curvature="0"
                     id="path3953" />
                </g>
                <path
                   d="m 97.529309,53.987635 26.058821,-3.92449 c 0,0 -0.0715,6.326453 -0.73103,10.52027 -0.65958,4.188321 -1.90728,6.244006 -1.41259,6.969542 3.40232,4.974318 11.20183,16.863213 18.02846,34.622353 6.82664,17.75364 9.27807,36.40321 9.27807,36.40321 0,0 1.60497,14.32384 4.46314,23.02477 2.85268,8.70094 6.95855,11.77897 6.95855,11.77897 l -0.53316,6.77716 -40.3332,-55.23416 z"
                   style="fill:#000000;fill-rule:evenodd;stroke-width:0.549648"
                   sodipodi:nodetypes="ccssscscccc"
                   inkscape:connector-curvature="0"
                   id="path2262" />
                <g
                   transform="matrix(0.54964838,0,0,0.54964838,-86.822762,-250.3197)"
                   id="g2586">
                  <path
                     d="m 403.85,793.77 c 0,0 22.28,2.44 25.04,7.7 1.47,2.82 -7.43,8.25 -7.43,8.25 l -14.86,4.4 3.3,0.83 h 5.51 c 0,0 -5.3,2.54 -10.18,7.15 -4.89,4.61 -7.21,11.08 -7.21,11.08 0,0 1.91,3.5 11.88,-0.63 9.98,-4.12 25.86,-15.68 25.86,-15.68 0,0 13.87,-2.56 19.99,-7.1 6.12,-4.54 4.5,-11.05 4.5,-11.05 l -37.42,-36.59 z"
                     style="fill:#71584b;fill-rule:evenodd"
                     sodipodi:nodetypes="csccccscscsccc"
                     inkscape:connector-curvature="0"
                     id="path2565" />
                  <path
                     d="m 403.85,793.77 c 0,0 22.28,2.44 25.04,7.7 1.47,2.82 -4.9,6.69 -4.9,6.69 l -10.17,5.96 8.41,-1.12 c 0,0 -10.17,7.81 -15.05,12.42 -4.89,4.6 -1.95,7.37 -1.95,7.37 0,0 -4.71,1.16 5.26,-2.97 9.97,-4.12 22.93,-13.92 22.93,-13.92 0,0 13.68,-1.79 19.8,-6.33 6.12,-4.54 4.1,-11.63 4.1,-11.63 l -34.49,-35.81 z"
                     style="fill:url(#linearGradient2612);fill-rule:evenodd"
                     sodipodi:nodetypes="cscccscscsccc"
                     inkscape:connector-curvature="0"
                     id="path2570" />
                </g>
                <path
                   d="m 99.079317,54.625227 c 2.698773,0.225356 5.738323,14.219404 5.738323,14.219404 l 17.21499,31.192549 c 0,0 7.29933,5.86475 10.98197,13.72472 3.67715,7.85997 1.96775,7.54667 3.74311,17.71516 2.12164,12.16922 10.72914,20.96359 10.72914,20.96359 0,0 0.18688,2.56137 1.99522,9.72878 1.68742,6.67823 10.72914,16.96765 10.72914,16.96765 0,0 0.81348,2.1876 -1.99523,2.74824 -2.8087,0.56064 -5.71084,0.84646 -9.23409,-0.50018 -2.12164,-0.80798 -2.92963,-4.86439 -5.23815,-3.74311 -2.30852,1.12129 -1.12128,5.49099 -3.99045,8.23374 -2.87466,2.74824 -2.56136,2.62182 -7.48621,2.74824 -4.93034,0.12092 -7.05199,-0.75302 -12.22967,-2.24806 -5.17769,-1.49505 -5.11723,-4.61705 -8.48108,-3.74311 -3.36934,0.87394 -4.99081,7.23887 -4.99081,7.23887 l -2.4954,-0.75302 c 0,0 -3.05604,-11.28978 -5.743821,-16.21463 -2.682284,-4.93034 -9.728776,-34.18813 -9.728776,-34.18813 0,0 -4.551089,-16.8797 -7.23887,-32.68759 C 78.676369,90.242442 79.885596,78.688833 82.111672,72.840574 84.106895,67.585936 86.937585,53.61937 99.079317,54.625227 Z"
                   style="fill:url(#radialGradient2614);fill-rule:evenodd;stroke-width:0.549648"
                   sodipodi:nodetypes="cccsscscsssssssccscsss"
                   inkscape:connector-curvature="0"
                   id="path2425" />
                <g
                   transform="matrix(0.54964838,0,0,0.54964838,-86.822762,-250.3197)"
                   id="g2253">
                  <path
                     d="m 339.12,553.89 c -0.15,-0.15 -0.3,-0.3 0,0 z"
                     inkscape:connector-curvature="0"
                     style="fill:#000000;fill-opacity:0.30451;fill-rule:evenodd;stroke:#000000;stroke-width:1px"
                     id="path1688" />
                  <path
                     d="m 338.22,553.44 h 2.72"
                     inkscape:connector-curvature="0"
                     style="fill:#000000;fill-opacity:0.30451;fill-rule:evenodd;stroke:#000000;stroke-width:1px"
                     id="path2423" />
                  <path
                     d="m 280.37,501.07 c 0,0 4.06,-1.97 8.83,-1.38 11.04,1.35 22.41,7.59 34.54,11.34 12.13,3.75 6.27,2.62 13.99,3.66 7.72,1.04 8.39,-1.36 16.9,0.5 8.51,1.86 11.03,2.62 17.14,6.94 6.11,4.31 11.12,24.74 11.12,24.74 0,0 -10.78,4.14 -18.45,6.25 -7.68,2.12 -27.02,1.68 -27.02,1.68 0,0 4.17,0.48 3.63,-3.58 -0.53,-4.07 -1.72,-7.04 -4.7,-12.33 -2.99,-5.28 -4.14,-6.54 -6.52,-9.3 -2.37,-2.75 -3.97,-2.51 -6.03,-4.4 -6.05,-5.57 -4.56,-4.33 -15.69,-12.11 -11.4,-7.98 -27.74,-12.01 -27.74,-12.01 z"
                     style="fill:#000000;fill-rule:evenodd"
                     sodipodi:nodetypes="cszssscscsssssc"
                     inkscape:connector-curvature="0"
                     id="path4731" />
                  <path
                     d="m 353.17,553.92 c 0,0 12.06,-3.19 13.81,-6.67 1.76,-3.48 1.91,-10.83 1.91,-10.83 0,0 2.01,-7.7 5.95,-6.55 6.17,1.78 7.86,15.95 7.86,15.95 0,0 -7.44,2.46 -13.1,4.65 -4.24,1.64 -16.43,3.45 -16.43,3.45 z"
                     style="fill:url(#linearGradient2616);fill-rule:evenodd"
                     sodipodi:nodetypes="cscscsc"
                     inkscape:connector-curvature="0"
                     id="path1484" />
                  <path
                     d="m 302.45,508.91 c 0,0 18.33,3.84 27.5,8.34 9.17,4.49 10.42,8.06 9.17,9.64 -1.25,1.58 -8.86,0.15 -14.17,-3.33 z"
                     style="fill:#a86249;fill-rule:evenodd"
                     sodipodi:nodetypes="csssc"
                     inkscape:connector-curvature="0"
                     id="path2251" />
                </g>
                <g
                   transform="matrix(0.54964838,0,0,0.54964838,-86.822762,-250.3197)"
                   id="g2561">
                  <path
                     d="m 390.59,599.72 c 0,0 0.06,2.35 20.26,5.63 15.2,2.46 26.84,-0.95 59.66,12.1 29.55,11.75 57.21,36.32 53.05,46.85 -2.81,7.1 -3.24,5.63 -3.24,5.63 0,0 -5.38,-0.88 -11.25,-4.08 -5.88,-3.2 -7.53,-4.89 -12.95,-8.44 -7.8,-5.13 -11.47,-3.63 -21.1,-6.9 -9.64,-3.27 -16.75,-6.47 -16.75,-6.47 0,0 -10.71,-4.16 -20.82,-4.36 -3.08,-0.06 -9.11,1.9 -16.18,-0.42 -7.07,-2.33 -12.1,-8.87 -12.1,-8.87 l -12.1,-1.97 -5.77,-28.56"
                     style="fill:#000000;fill-rule:evenodd"
                     sodipodi:nodetypes="cssscssscssccc"
                     inkscape:connector-curvature="0"
                     id="path2266" />
                  <path
                     d="m 442.22,613.09 c -4.83,-0.51 -7.81,1.35 -16.72,2.1 -8.91,0.74 -15.69,-1.78 -18.9,0.88 -0.94,0.78 -1.61,2.22 -2.19,5.44 -0.3,1.62 -4.96,1.35 -5.12,2.52 -0.16,1.16 4.02,5.73 4.02,5.73 l 5.71,-0.34 c 0,0 5.05,6.52 12.12,8.85 7.07,2.32 13.22,1.36 16.3,1.42 10.11,0.2 20.84,4.34 20.84,4.34 0,0 7.08,3.2 16.72,6.47 8.66,2.94 12.65,2.28 19,5.78 l 3.09,-0.84 c 0,0 4.8,-1.46 6.07,-5.06 2.64,-7.53 -5.3,-14.06 -20.54,-23.38 -15.23,-9.32 -25.9,-12.36 -40.4,-13.91 z"
                     style="fill:#8c8c8c;fill-rule:evenodd"
                     sodipodi:nodetypes="cssssccsscsccsss"
                     inkscape:connector-curvature="0"
                     id="path2268" />
                </g>
              </g>
            </g>
          </g>
        </g>
      </g>
    </g>
  </g>
</svg>
